<svg xmlns="http://www.w3.org/2000/svg" xmlns:xlink="http://www.w3.org/1999/xlink" width="117" height="117" viewBox="0 0 117 117">
    <defs>
        <path id="a" d="M0 .093v113.462h116.907V.093H0z"/>
    </defs>
    <g fill="none" fill-rule="evenodd">
        <g transform="translate(0 2.7)">
            <mask id="b" fill="#fff">
                <use xlink:href="#a"/>
            </mask>
            <path fill="#95D600" d="M107.06 8.633C88.905-7.848 75.23 4.503 58.895 5.036 42.701 5.563 25.637-6.811 9.601 9.27 4.52 15.162-1.471 33.136.326 48.708a.5.5 0 0 0 .428.439c.218.017.447-.096.533-.307l2.614-6.385c-.353 10.013.38 35.413 22.926 52.775.152.12.359.14.53.053a.503.503 0 0 0 .274-.46l-.077-4.34c2.173 4.61 7.305 8.841 12.662 13.261 6.895 5.688 22.194 11.242 22.77 9.479 5.085-7.082 11.616-8.048 18.644-13.74 5.403-4.373 8.28-7.126 10.491-11.719l-.11 4.344a.488.488 0 0 0 .27.46c.175.09.381.075.532-.044 22.693-17.166 20.733-46.53 20.465-56.546l2.56 6.406a.5.5 0 0 0 .963-.125c1.072-15.285-6.273-30.476-9.742-33.626" mask="url(#b)"/>
        </g>
        <path fill="#FFF" d="M82.429 23.369c-8.793-4.168-17.456-1.051-21.93 5.262a2.439 2.439 0 0 1-3.98 0c-4.474-6.313-13.137-9.43-21.93-5.262-2.57 1.218-5.708 4.352-6.929 6.927-6.025 12.715 3.072 25.192 15.068 25.172H74.29c11.996.02 21.093-12.457 15.068-25.172-1.22-2.575-4.359-5.709-6.929-6.927"/>
        <path fill="#FFF" d="M79.001 69.625c0 13.166-7.364 28.536-20.492 28.536S38.017 82.79 38.017 69.625c0-13.165 7.364-21.967 20.492-21.967S79 56.46 79 69.625"/>
        <path stroke="#95D600" stroke-width="3.507" d="M79.001 69.625c0 13.166-7.364 28.536-20.492 28.536S38.017 82.79 38.017 69.625c0-13.165 7.364-21.967 20.492-21.967S79 56.46 79 69.625z"/>
        <path fill="#95D600" d="M57.401 56.56c0 1.064-.86 1.927-1.922 1.927a1.925 1.925 0 0 1-1.922-1.928c0-1.064.86-1.927 1.922-1.927 1.061 0 1.922.863 1.922 1.927M63.461 56.56c0 1.064-.86 1.927-1.922 1.927a1.925 1.925 0 0 1-1.922-1.928c0-1.064.86-1.927 1.922-1.927 1.062 0 1.922.863 1.922 1.927M66.7 82.86c-5.16 4.108-11.736-.418-11.98-2.025-.256-1.674 5.395 2.175 9.797-2.234 3.947-3.955 2.607-7.94 4.256-7.746 1.61.19 2.007 8.76-2.072 12.005"/>
        <path fill="#82BC00" d="M58.509 29.674c1.606 0 1.994-1.809 2.02-1.977.599-3.972 2.084-7.19 4.05-10.495 3.527-5.93 11.537-12.656 22.567-12.956 14.918-.263 22.372 10.445 22.372 10.445S97.314-6.404 72.353 1.962c-.043.014-6.086 2.741-13.865 2.741-7.634 0-13.78-2.727-13.823-2.74-24.961-8.367-37.007 12.77-37.007 12.77s7.297-10.75 22.214-10.487c11.03.3 19.04 7.027 22.567 12.956 1.966 3.305 3.451 6.523 4.05 10.495.026.168.414 1.977 2.02 1.977"/>
        <path fill="#231F1F" d="M50.402 43.65a6.45 6.45 0 0 1-8.638 2.975c-3.204-1.57-4.532-5.449-2.966-8.662a6.45 6.45 0 0 1 8.638-2.974c3.204 1.57 4.532 5.448 2.966 8.662"/>
        <path fill="#FFF" d="M46.195 37.165a2.46 2.46 0 0 0 2.457 2.465 2.46 2.46 0 0 0 2.458-2.465 2.46 2.46 0 0 0-2.458-2.464 2.46 2.46 0 0 0-2.457 2.464"/>
        <path fill="#231F1F" d="M74.833 41.466c2.537.322 4.74.968 6.336 2.726-.275-3.536-2.99-5.939-6.638-6.402-4.172-.53-7.983 1.859-8.511 6.043-.011.088-.018.174-.026.26 2.186-2.34 5.422-3.06 8.839-2.627"/>
    </g>
</svg>
